PathFileType	4	(X/Y/Z)	C:/Users/beibeiliu/ov580/test_trc/User3\sequence.22_training_dense_left.trc
DataRate	CameraRate	NumFrames	NumMarkers	Units	OrigDataRate	OrigDataStartFrame	OrigNumFrames
120	120	19	19	mm	120	27	106
Frame#	Time	ThumbCMC			ThumbMCP			ThumbIP			ThumbTip			IndexMCP			IndexPIP			IndexTip			MiddleMCP			MiddlePIP			MiddleTip			RingMCP			RingPIP			RingTip			PinkyMCP			PinkyPIP			PinkyTip			BackHand1			BackHand2			BackHand3	
		X0	Y0	Z0	X1	Y1	Z1	X2	Y2	Z2	X3	Y3	Z3	X4	Y4	Z4	X5	Y5	Z5	X6	Y6	Z6	X7	Y7	Z7	X8	Y8	Z8	X9	Y9	Z9	X10	Y10	Z10	X11	Y11	Z11	X12	Y12	Z12	X13	Y13	Z13	X14	Y14	Z14	X15	Y15	Z15	X16	Y16	Z16	X17	Y17	Z17	X18	Y18	Z18	
26	0.216667	-124.351	37.7217	22.6807	-105.386	34.2208	-3.32901	-92.0445	19.6715	-24.7157	-79.496	6.47785	-38.3304	-105.306	-5.31209	-32.693	-74.1824	-8.76092	-21.6313	-85.7148	7.52342	4.30355	-99.4616	-28.2779	-18.799	-74.2268	-16.4752	-4.36895	-97.052	0.854259	22.2763	-101.248	-37.1191	-7.21731	-76.9166	-27.6167	11.4603	-94.6424	-6.18031	31.9674	-120.09	-53.561	4.1328	-98.3041	-59.202	-10.3202	-75.8253	-65.0584	-15.0469	-152.309	-24.8233	20.9074	-163.87	-9.4188	50.0909	-152.697	13.6127	18.8535	
27	0.225	-138.225	36.4234	21.1953	-121.214	44.9766	-5.78827	-102.561	35.6546	-33.0662	-85.8996	30.7896	-47.5893	-103.495	1.84284	-33.314	-73.7849	19.7421	-25.8469	-89.5734	24.9167	1.97466	-89.2793	-9.04035	-23.9272	-68.3842	6.12811	-5.05999	-102.129	15.4735	18.9998	-87.2569	-24.6945	-7.31264	-67.6438	-3.75878	9.31365	-87.3468	8.33567	29.5969	-96.4194	-44.6806	3.86482	-79.49	-42.2348	-8.65002	-54.7891	-40.3497	-18.6263	-139.739	-24.3	19.5939	-152.82	-17.5749	48.3351	-152.889	3.39063	15.0749	
28	0.233333	-149.729	34.2527	14.5676	-135.667	42.9066	-6.70265	-117.826	44.0585	-33.2933	-101.743	44.6187	-48.6937	-102.695	14.1195	-39.3968	-82.1593	36.8642	-31.7564	-102.89	37.9487	-1.17581	-90.6299	5.68283	-28.2835	-74.4221	32.1753	-11.9029	-100.081	25.9363	13.0451	-78.3283	-2.85711	-13.4224	-67.7255	22.9562	0.381255	-90.4127	27.0386	21.7192	-82.3072	-24.7821	-1.45135	-61.8956	-20.695	-15.2541	-43.6398	-14.9222	-28.493	-123.674	-28.6144	15.8111	-143.059	-21.6356	45.5012	-152.2	-4.0901	14.4702	
29	0.241667	-156.36	24.7604	15.7933	-145.134	34.7175	-11.528	-136.577	44.9976	-39.5381	-121.002	50.5706	-56.6629	-108.945	17.3816	-43.4271	-98.0667	49.3991	-39.8809	-117.635	45.2171	-10.2653	-88.2794	15.8335	-34.2605	-84.6051	45.4982	-20.2507	-110.879	29.7909	7.40351	-79.0134	11.3178	-20.5065	-74.5895	38.6464	-8.4201	-95.0229	34.943	16.7346	-75.1973	-7.56404	-7.90878	-58.4333	-0.312225	-24.856	-45.279	9.57885	-40.1491	-115.789	-23.1667	14.1184	-127.963	-23.2909	40.2646	-146.783	-11.7596	12.1151	
30	0.25	-154.735	10.6817	12.087	-154.958	23.662	-17.3759	-145.181	32.866	-39.7945	-133.597	40.3415	-62.1155	-117.908	17.9082	-53.1057	-111.018	46.7298	-48.028	-125.219	39.5955	-13.9798	-95.5705	16.2251	-39.7888	-95.9942	48.7448	-28.7528	-112.687	31.4035	0.402174	-81.8446	17.3816	-29.9094	-83.0263	45.3108	-15.7768	-106.117	36.8736	5.68754	-71.8045	0.44614	-16.2311	-61.4454	9.39699	-31.1288	-50.6324	21.1174	-53.4453	-101.648	-25.6161	9.73497	-115.534	-26.2603	39.7185	-137.907	-21.2948	10.5642	
31	0.258333	-158.568	-0.777498	14.4557	-162.994	10.0885	-16.912	-156.305	15.7025	-41.6547	-152.099	23.5373	-66.0128	-124.788	4.54704	-55.8417	-128.685	35.0575	-56.2654	-137.962	31.1517	-22.7501	-106.615	11.4599	-49.7583	-111.628	40.6264	-38.6654	-123.706	23.1575	-5.052	-88.6145	10.6425	-35.2869	-94.0084	38.8086	-31.709	-111.208	32.1009	-1.98241	-75.042	-2.30438	-20.6616	-67.4548	6.84368	-43.3489	-63.9867	16.1513	-60.7615	-100.731	-28.7954	7.74839	-111.797	-28.1235	38.3546	-139.007	-28.4088	9.37377	
32	0.266667	-160.875	-7.86902	17.2837	-167.794	-2.3394	-11.0256	-169.67	0.126479	-41.0736	-162.99	2.21793	-63.7127	-142.228	-17.4184	-52.8402	-141.154	15.6385	-60.9246	-144.018	19.0905	-27.5379	-118.14	-8.87972	-51.2531	-121.692	24.2344	-49.6942	-129.38	13.3313	-11.7103	-102.944	-6.51719	-43.9053	-103.705	23.8062	-43.1543	-115.219	22.6744	-11.0231	-83.8906	-16.0708	-30.2527	-85.8298	-10.9107	-53.0044	-83.4186	-1.09643	-76.1451	-103.782	-37.3066	6.34269	-110.858	-32.0586	38.5035	-136.448	-35.0033	16.9384	
33	0.275	-168.562	-7.58121	24.7846	-177.133	-6.08496	-5.31513	-183.153	-9.94636	-36.4543	-181.705	-10.283	-55.6035	-159.674	-32.1647	-46.4526	-155.734	-2.97285	-61.5177	-153.241	8.25744	-29.4236	-141.066	-27.0251	-51.5778	-135.848	3.53329	-53.5235	-136.534	2.84596	-14.8667	-123.008	-26.9608	-46.7141	-117.673	0.763356	-48.7421	-122.009	5.95087	-14.2329	-105.936	-41.8061	-37.1207	-110.43	-36.7031	-57.2016	-108.54	-33.1691	-79.7649	-123.315	-51.2848	8.88325	-119.268	-43.3348	36.6669	-150.109	-42.8669	23.5207	
34	0.283333	-171.215	2.09701	32.2054	-184.65	7.75824	4.10318	-195.524	3.85269	-22.0372	-199.555	-2.39647	-45.6991	-190.349	-28.3621	-33.388	-175.489	-3.52157	-53.2713	-162.621	8.3009	-29.5539	-170.718	-31.8505	-44.076	-152.647	-5.20713	-48.5377	-147.859	-5.1982	-8.74773	-150.763	-40.6952	-40.1082	-138.707	-11.1396	-46.4164	-132.941	-4.80938	-12.8793	-138.837	-56.2646	-26.9768	-148.071	-52.6408	-52.2994	-152.478	-47.5152	-73.9635	-151.388	-55.8425	17.5668	-137.356	-46.9192	46.1884	-168.954	-36.6554	33.8006	
35	0.291667	-166.88	21.1514	38.5373	-184.2	26.4141	10.1998	-197.626	27.69	-12.124	-207.343	24.0534	-35.2077	-212.176	-1.13173	-20.7348	-191.712	16.1275	-43.7542	-170.04	19.49	-23.811	-195.066	-18.0159	-32.8751	-170.766	1.43565	-41.487	-157.404	2.20748	-4.61179	-182.262	-32.2386	-30.0935	-158.466	-12.7082	-41.0172	-145.95	-5.69521	-12.9795	-182.596	-49.6344	-19.87	-189.566	-43.7983	-41.2934	-191.906	-41.1055	-61.3046	-180.794	-45.332	27.4456	-159.94	-41.9918	52.796	-181.533	-14.4579	45.296	
36	0.3	-155.932	35.5053	40.864	-171.977	46.8257	15.0659	-186.322	55.0546	-6.13979	-200.372	61.3723	-28.5162	-212.845	31.3362	-11.4816	-196.004	36.0425	-37.982	-167.493	30.1311	-20.4867	-208.73	13.6703	-19.852	-181.425	18.9409	-37.5046	-161.513	8.52753	-4.49583	-203.758	-6.38944	-18.2547	-179.622	-1.3566	-36.4818	-156.038	1.34753	-7.60822	-209.445	-19.3612	-8.73664	-216.098	-12.5387	-28.0124	-222.361	-9.46401	-52.1977	-196.434	-19.8751	38.2103	-176.822	-22.9128	58.748	-183.777	10.3601	51.9535	
37	0.308333	-145.817	39.7166	38.2592	-157.027	59.1133	15.0654	-167.423	71.7963	-4.75939	-180.008	82.8676	-24.8739	-202.846	60.9003	-10.3142	-184.876	56.6716	-35.3129	-160.506	43.3907	-17.3669	-207.088	40.1245	-13.1231	-182.312	32.5184	-34.4075	-164.796	17.2816	-4.07728	-210.785	20.8952	-13.2431	-183.901	16.7807	-32.9601	-162.662	4.50971	-7.03892	-220.734	7.41432	1.37748	-227.988	17.1851	-20.4082	-231.905	27.5582	-38.848	-199.54	10.3098	44.9538	-184.367	-7.61115	62.1118	-177.296	33.4573	54.43	
38	0.316667	-137.987	35.8816	35.5596	-138.14	58.5401	10.9812	-148.48	76.6164	-9.91631	-159.986	83.1049	-27.563	-185.335	75.3637	-6.82021	-169.827	66.901	-36.7116	-154.517	42.7643	-20.1077	-194.21	59.8565	-13.6191	-176.559	40.282	-35.3238	-163.249	20.9058	-2.03603	-204.163	42.0527	-14.1421	-185.877	26.1943	-33.9141	-166.044	10	-11.9407	-219.151	32.1389	-0.0176264	-226.966	39.6549	-19.2396	-232.319	50.4933	-43.2255	-199.109	24.306	43.4389	-183.178	8.99165	61.5049	-167.237	41.4806	54.1929	
39	0.325	-131.787	30.4694	31.1774	-129.457	46.4241	5.96262	-135.381	66.8567	-20.9023	-147.165	76.6059	-42.4152	-170.72	73.5033	-21.2092	-159.814	59.9569	-44.7893	-145.48	35.1403	-22.5328	-186.059	56.9429	-24.9026	-169.011	33.3892	-39.4828	-159.846	17.4605	-8.74055	-195.204	45.0432	-19.0624	-181.241	21.915	-35.9618	-165.719	5.22423	-9.25323	-214.713	40.3126	-6.29945	-219.487	46.8864	-26.4278	-222.406	52.8634	-50.5842	-191.943	36.6211	40.5937	-183.275	15.0472	58.7837	-157.138	42.5962	48.8105	
40	0.333333	-119.439	28.702	22.6865	-118.743	36.9323	-6.34091	-121.529	46.7543	-35.244	-130.827	49.5748	-58.8015	-158.786	57.8285	-38.2298	-146.694	34.6589	-54.5448	-139.743	18.0307	-27.5662	-174.178	43.6041	-37.2678	-160.998	16.2926	-46.7132	-148.981	10.9378	-8.82517	-188.521	32.9055	-30.0398	-174.86	7.11522	-40.7265	-159.153	0.229018	-8.65437	-204.198	35.1057	-13.3734	-211.595	35.5506	-36.8307	-211.463	37.4697	-61.1603	-188.543	40.9545	27.6216	-177.346	25.3775	54.1775	-152.177	45.9266	38.2455	
41	0.341667	-114.579	28.8746	19.7741	-111.552	24.1125	-8.34177	-113.012	25.2499	-44.5206	-124.688	21.2823	-64.6696	-147.065	40.1599	-47.548	-138.785	11.9234	-59.1163	-134.145	3.9609	-26.7487	-166.491	25.2708	-46.4954	-152.756	-3.88923	-45.4211	-148.849	1.76233	-6.32865	-182.605	18.4942	-35.7964	-166.789	-8.65828	-37.9232	-153.901	-6.48143	-6.53192	-201.847	24.6987	-23.3483	-203.024	18.0785	-46.7801	-202.594	4.71307	-70.6963	-180.673	43.4982	17.1141	-171.282	36.7805	45.6714	-144.399	49.8039	27.1541	
42	0.35	-115.823	30.7401	17.0066	-104.846	20.0263	-9.27691	-111.537	9.1627	-39.1594	-117.384	-1.77048	-56.8768	-138.814	23.5964	-51.0882	-129.985	-9.03629	-48.2801	-127.246	-0.264042	-15.2453	-159.162	7.04405	-46.3225	-147.564	-19.5478	-34.6548	-140.6	1.84916	0.5708	-175.896	3.59214	-33.6323	-163.548	-23.6053	-23.1361	-150.495	-9.76224	3.81339	-196.76	12.4098	-25.1555	-195.158	-2.53727	-46.3885	-187.655	-24.4864	-58.8167	-177.78	44.0215	10.7615	-172.42	44.9859	39.9761	-144.688	53.0853	18.3581	
43	0.358333	-114.159	36.8707	21.734	-105.875	19.1764	-1.2509	-101.12	2.71939	-24.3539	-106.514	-16.2652	-45.3019	-135.985	6.35913	-44.1585	-119.037	-19.9062	-36.6347	-119.993	-7.85003	-4.53571	-153.582	-4.02818	-35.8567	-134.078	-27.8043	-18.3438	-136.628	-1.84984	9.16096	-165.626	-11.472	-26.3231	-153.144	-31.5547	-10.3763	-147.451	-9.55372	17.8727	-187.347	-0.668018	-22.8328	-184.172	-23.5541	-34.3426	-169.79	-45.3871	-30.4408	-176.953	40.0915	3.80555	-178.376	48.8972	35.8629	-144.82	55.3753	14.3312	
44	0.366667	-117.512	44.3263	28.4625	-97.4629	23.9804	8.16894	-89.8399	1.8721	-15.7552	-95.5799	-17.7765	-26.0571	-122.746	2.27159	-33.5195	-107.632	-23.5549	-20.9989	-112.855	-5.16657	9.63286	-139.429	-9.44231	-25.3423	-124.261	-30.0389	-4.22769	-128.467	2.7421	20.7042	-154.278	-20.2559	-13.1167	-140.191	-33.1645	7.3933	-140.395	-4.46396	29.8953	-177.354	-11.0092	-10.1932	-163.789	-39.5506	-11.7502	-143.058	-44.2584	8.89405	-174.971	35.3977	5.65934	-175.283	51.3796	30.7349	-145.286	56.4223	8.75226	
